<svg width="151" height="40" viewBox="0 0 151 40" fill="none" xmlns="http://www.w3.org/2000/svg">
<g clip-path="url(#clip0_18_8)">
<path d="M8.04124 15.1268H11.8048V9.78638H8.04124C5.9087 9.78638 3.8635 10.642 2.35557 12.1649C0.847636 13.6879 0.000488281 15.7534 0.000488281 17.9072V23.2477C0.000488281 21.0939 0.847636 19.0283 2.35557 17.5054C3.8635 15.9824 5.9087 15.1268 8.04124 15.1268Z" fill="url(#paint0_linear_18_8)"/>
<path d="M8.04123 24.9139C5.90869 24.9139 3.8635 25.7694 2.35557 27.2924C0.847636 28.8153 0.000488281 30.8809 0.000488281 33.0347V39.9993L11.8053 30.8129V24.9121L8.04123 24.9139Z" fill="url(#paint1_linear_18_8)"/>
<path d="M22.2803 24.9099L25.1449 24.8725C26.1092 24.8725 27.5097 25.913 27.5097 27.543C27.5097 29.173 26.1092 30.2129 25.1449 30.2129H26.9832C32.7159 30.2129 38.345 24.6043 36.1624 19.7336C35.3697 18.7404 34.4314 17.8753 33.38 17.1682C32.4734 19.4074 30.9412 21.3317 28.9702 22.7064C26.9992 24.0811 24.6747 24.8467 22.2803 24.9099Z" fill="url(#paint2_linear_18_8)"/>
<path d="M0 33.036C0 30.8822 0.847148 28.8167 2.35508 27.2937C3.86301 25.7708 5.90821 24.9152 8.04075 24.9152H21.9593C28.7714 24.9152 34.2935 19.3375 34.2935 12.4582C34.2935 5.57888 28.7714 0.0012207 21.9593 0.0012207H8.04133C5.90879 0.0012207 3.86359 0.856805 2.35566 2.37975C0.847727 3.9027 0.000579036 5.96827 0.000579036 8.12204V17.9085C0.000579036 15.7547 0.847727 13.6892 2.35566 12.1662C3.86359 10.6433 5.90879 9.78769 8.04133 9.78769H20.5502C21.5145 9.78769 22.915 10.8276 22.915 12.4582C22.915 14.0888 21.5145 15.1281 20.5502 15.1281H8.04133C5.90879 15.1281 3.86359 15.9837 2.35566 17.5067C0.847727 19.0296 0.000579036 21.0952 0.000579036 23.249V33.036H0Z" fill="url(#paint3_linear_18_8)"/>
<path d="M0 39.9999H26.5547C33.3668 39.9999 38.8889 34.4223 38.8889 27.5429C38.8935 24.701 37.9312 21.9438 36.1631 19.7329C38.3451 24.6066 32.716 30.2152 26.9834 30.2152H8.04133C5.90879 30.2152 3.86359 31.0708 2.35566 32.5937C0.847727 34.1167 0.000579036 36.1822 0.000579036 38.336L0 39.9999Z" fill="url(#paint4_linear_18_8)"/>
</g>
<path d="M68.9361 12.4545L66.5213 27H63.8651L59.071 17.8452H58.9574L57.4304 27H54.3551L56.7699 12.4545H59.4688L64.2415 21.6023H64.3622L65.875 12.4545H68.9361ZM69.0621 27L71.4769 12.4545H81.2781L80.8519 14.9901H74.1261L73.5579 18.456H79.7795L79.3533 20.9915H73.1317L72.5636 24.4645H79.3178L78.8917 27H69.0621ZM95.8537 19.9261C95.5885 21.4792 95.0748 22.7978 94.3125 23.8821C93.5549 24.9664 92.6293 25.7902 91.5355 26.3537C90.4465 26.9171 89.2723 27.1989 88.0128 27.1989C86.6918 27.1989 85.553 26.8982 84.5966 26.2969C83.6449 25.6955 82.956 24.8267 82.5298 23.6903C82.1037 22.5492 82.0232 21.1738 82.2884 19.5639C82.544 18.0062 83.053 16.6851 83.8153 15.6009C84.5777 14.5118 85.508 13.6832 86.6065 13.1151C87.705 12.5421 88.8864 12.2557 90.1506 12.2557C91.4621 12.2557 92.5938 12.5587 93.5455 13.1648C94.5019 13.7708 95.1908 14.6468 95.6122 15.7926C96.0384 16.9337 96.1188 18.3116 95.8537 19.9261ZM92.7926 19.5639C92.9583 18.5649 92.9512 17.7268 92.7713 17.0497C92.5961 16.3679 92.2741 15.8518 91.8054 15.5014C91.3366 15.151 90.7448 14.9759 90.0298 14.9759C89.2533 14.9759 88.5407 15.17 87.892 15.5582C87.2481 15.9465 86.7036 16.5099 86.2585 17.2486C85.8182 17.9825 85.5128 18.875 85.3423 19.9261C85.1719 20.9299 85.1766 21.768 85.3565 22.4403C85.5412 23.1127 85.8703 23.6217 86.3438 23.9673C86.822 24.3082 87.4162 24.4787 88.1264 24.4787C88.8982 24.4787 89.6037 24.2893 90.2429 23.9105C90.8868 23.527 91.429 22.9706 91.8693 22.2415C92.3097 21.5076 92.6174 20.6151 92.7926 19.5639ZM101.582 27L103.996 12.4545H109.82C110.89 12.4545 111.757 12.6132 112.42 12.9304C113.087 13.2476 113.554 13.688 113.819 14.2514C114.084 14.8101 114.155 15.4541 114.032 16.1832C113.933 16.7514 113.731 17.2486 113.428 17.6747C113.13 18.1009 112.761 18.4512 112.32 18.7259C111.88 19.0005 111.402 19.1946 110.886 19.3082L110.857 19.4503C111.406 19.474 111.901 19.6302 112.342 19.919C112.782 20.2031 113.111 20.6056 113.329 21.1264C113.547 21.6473 113.596 22.2652 113.478 22.9801C113.35 23.7519 113.045 24.4408 112.562 25.0469C112.079 25.6482 111.435 26.1241 110.63 26.4744C109.83 26.8248 108.885 27 107.796 27H101.582ZM105.083 24.4858H107.59C108.442 24.4858 109.094 24.3201 109.543 23.9886C109.993 23.6572 110.263 23.2192 110.353 22.6747C110.415 22.2723 110.374 21.9171 110.232 21.6094C110.095 21.3016 109.861 21.0601 109.529 20.8849C109.202 20.7098 108.788 20.6222 108.286 20.6222H105.715L105.083 24.4858ZM106.07 18.5412H108.35C108.767 18.5412 109.153 18.4678 109.508 18.321C109.868 18.1695 110.164 17.9564 110.396 17.6818C110.632 17.4025 110.781 17.0734 110.843 16.6946C110.928 16.1643 110.81 15.7405 110.488 15.4233C110.171 15.1013 109.674 14.9403 108.996 14.9403H106.667L106.07 18.5412ZM117.83 27.206C117.139 27.206 116.54 27.0852 116.033 26.8438C115.531 26.5975 115.162 26.233 114.925 25.75C114.688 25.267 114.629 24.6681 114.748 23.9531C114.852 23.3471 115.048 22.8404 115.337 22.4332C115.631 22.0213 115.988 21.6899 116.409 21.4389C116.831 21.188 117.297 20.9962 117.809 20.8636C118.325 20.7311 118.857 20.6411 119.407 20.5938C120.041 20.5275 120.557 20.4635 120.955 20.402C121.357 20.3404 121.658 20.2528 121.857 20.1392C122.056 20.0208 122.176 19.8456 122.219 19.6136V19.571C122.29 19.1259 122.207 18.7803 121.971 18.5341C121.739 18.2831 121.367 18.1577 120.855 18.1577C120.316 18.1577 119.856 18.276 119.478 18.5128C119.104 18.7495 118.836 19.0502 118.675 19.4148L115.919 19.1875C116.166 18.5246 116.537 17.9517 117.034 17.4688C117.536 16.9811 118.14 16.607 118.846 16.3466C119.551 16.0814 120.342 15.9489 121.218 15.9489C121.824 15.9489 122.39 16.0199 122.915 16.1619C123.445 16.304 123.902 16.5241 124.286 16.8224C124.674 17.1207 124.953 17.5043 125.124 17.973C125.299 18.437 125.335 18.9934 125.23 19.642L124.002 27H121.132L121.388 25.4872H121.303C121.071 25.8281 120.787 26.1288 120.451 26.3892C120.114 26.6449 119.729 26.8461 119.293 26.9929C118.857 27.1349 118.37 27.206 117.83 27.206ZM119.044 25.1179C119.485 25.1179 119.89 25.0303 120.259 24.8551C120.633 24.6752 120.941 24.4337 121.182 24.1307C121.428 23.8277 121.585 23.4844 121.651 23.1009L121.836 21.9432C121.741 22.0047 121.604 22.0592 121.424 22.1065C121.248 22.1539 121.057 22.1989 120.848 22.2415C120.645 22.2794 120.439 22.3149 120.23 22.348C120.022 22.3764 119.835 22.4048 119.669 22.4332C119.305 22.4853 118.978 22.5682 118.689 22.6818C118.4 22.7955 118.166 22.9493 117.986 23.1435C117.806 23.3329 117.695 23.5696 117.652 23.8537C117.586 24.2656 117.683 24.5805 117.944 24.7983C118.209 25.0114 118.576 25.1179 119.044 25.1179ZM130.44 20.6932L129.389 27H126.37L128.189 16.0909H131.065L130.752 18.0156H130.873C131.219 17.3764 131.707 16.8722 132.336 16.5028C132.971 16.1335 133.693 15.9489 134.502 15.9489C135.26 15.9489 135.892 16.1146 136.399 16.446C136.91 16.7775 137.27 17.2486 137.478 17.8594C137.691 18.4702 137.727 19.2017 137.585 20.054L136.42 27H133.395L134.467 20.5938C134.576 19.9261 134.491 19.4053 134.211 19.0312C133.937 18.6525 133.494 18.4631 132.883 18.4631C132.476 18.4631 132.102 18.5507 131.761 18.7259C131.42 18.901 131.134 19.1567 130.902 19.4929C130.674 19.8243 130.52 20.2244 130.44 20.6932ZM142.05 23.8608L142.654 20.2315H143.094L147.292 16.0909H150.765L145.168 21.5739H144.444L142.05 23.8608ZM138.79 27L141.205 12.4545H144.231L141.816 27H138.79ZM145.609 27L143.194 22.2486L145.559 20.1108L149.153 27H145.609Z" fill="#343C6A"/>
<defs>
<linearGradient id="paint0_linear_18_8" x1="8.17544" y1="5.85508" x2="3.68713" y2="25.6123" gradientUnits="userSpaceOnUse">
<stop stop-color="#20B6FF"/>
<stop offset="1" stop-color="#0B2D92"/>
</linearGradient>
<linearGradient id="paint1_linear_18_8" x1="14694.2" y1="13589.8" x2="13126.2" y2="19044.5" gradientUnits="userSpaceOnUse">
<stop stop-color="#20B6FF"/>
<stop offset="1" stop-color="#0B2D92"/>
</linearGradient>
<linearGradient id="paint2_linear_18_8" x1="23838.7" y1="13189.2" x2="22611" y2="11312.1" gradientUnits="userSpaceOnUse">
<stop stop-color="#20B6FF"/>
<stop offset="1" stop-color="#0B2D92"/>
</linearGradient>
<linearGradient id="paint3_linear_18_8" x1="0" y1="16.518" x2="34.2941" y2="16.518" gradientUnits="userSpaceOnUse">
<stop stop-color="#00FFE5"/>
<stop offset="1" stop-color="#1A69F4"/>
</linearGradient>
<linearGradient id="paint4_linear_18_8" x1="42826.8" y1="21422.3" x2="68970.6" y2="21422.3" gradientUnits="userSpaceOnUse">
<stop stop-color="#00FFE5"/>
<stop offset="1" stop-color="#1A69F4"/>
</linearGradient>
<clipPath id="clip0_18_8">
<rect width="38.8889" height="40" fill="white"/>
</clipPath>
</defs>
</svg>
